solid gopro_motoduino_mount
facet normal 3.3647464230346374e-07 -0.9999999999999349 -1.3059366116989369e-07
  outer loop
    vertex 32.30399876888986 18.204459919219474 46.60689375672026
    vertex 22.838553278521506 18.20445787841636 46.72846694204648
    vertex 22.303994024597692 18.204457714427726 46.60689138457375
  endloop
endfacet
facet normal 3.3647464230346374e-07 -0.9999999999999349 -1.3059366116989369e-07
  outer loop
    vertex 22.838553278521506 18.20445787841636 46.72846694204648
    vertex 32.30399876888986 18.204459919219474 46.60689375672026
    vertex 31.75618811015014 18.204459732162913 46.62781490156314
  endloop
endfacet
facet normal 3.3647464230346374e-07 -0.9999999999999349 -1.3059366116989369e-07
  outer loop
    vertex 22.838553278521506 18.20445787841636 46.72846694204648
    vertex 31.75618811015014 18.204459732162913 46.62781490156314
    vertex 31.23245843768771 18.204459534786015 46.78980700727441
  endloop
endfacet
facet normal 3.3647464230346374e-07 -0.9999999999999349 -1.3059366116989369e-07
  outer loop
    vertex 22.838553278521506 18.20445787841636 46.72846694204648
    vertex 31.23245843768771 18.204459534786015 46.78980700727441
    vertex 23.323431797875436 18.204458008161517 46.984254028506165
  endloop
endfacet
facet normal 3.3647464230346374e-07 -0.9999999999999349 -1.3059366116989369e-07
  outer loop
    vertex 23.323431797875436 18.204458008161517 46.984254028506165
    vertex 31.23245843768771 18.204459534786015 46.78980700727441
    vertex 30.768501063176682 18.204459340539696 47.08183057955447
  endloop
endfacet
facet normal 3.3647464230346374e-07 -0.9999999999999349 -1.3059366116989369e-07
  outer loop
    vertex 23.323431797875436 18.204458008161517 46.984254028506165
    vertex 30.768501063176682 18.204459340539696 47.08183057955447
    vertex 23.725585912865164 18.204458094821273 47.356821176718725
  endloop
endfacet
facet normal 3.3647464230346374e-07 -0.9999999999999349 -1.3059366116989369e-07
  outer loop
    vertex 23.725585912865164 18.204458094821273 47.356821176718725
    vertex 30.768501063176682 18.204459340539696 47.08183057955447
    vertex 30.39593391496416 18.20445916266152 47.4839846945442
  endloop
endfacet
facet normal 3.3647464230346374e-07 -0.9999999999999349 -1.3059366116989369e-07
  outer loop
    vertex 23.725585912865164 18.204458094821273 47.356821176718725
    vertex 30.39593391496416 18.20445916266152 47.4839846945442
    vertex 24.01760948514523 18.20445813248991 47.820778551229786
  endloop
endfacet
facet normal 3.3647464230346374e-07 -0.9999999999999349 -1.3059366116989369e-07
  outer loop
    vertex 24.01760948514523 18.20445813248991 47.820778551229786
    vertex 30.39593391496416 18.20445916266152 47.4839846945442
    vertex 30.14014682850451 18.204459013273592 47.968863213898146
  endloop
endfacet
facet normal 3.3647464230346374e-07 -0.9999999999999349 -1.3059366116989369e-07
  outer loop
    vertex 24.01760948514523 18.20445813248991 47.820778551229786
    vertex 30.14014682850451 18.204459013273592 47.968863213898146
    vertex 24.179601590856517 18.20445811860037 48.34450822369225
  endloop
endfacet
facet normal 3.3647464230346374e-07 -0.9999999999999349 -1.3059366116989369e-07
  outer loop
    vertex 24.179601590856517 18.20445811860037 48.34450822369225
    vertex 30.14014682850451 18.204459013273592 47.968863213898146
    vertex 30.018571271031803 18.204458902556446 48.50342246782198
  endloop
endfacet
facet normal 3.3647464230346374e-07 -0.9999999999999349 -1.3059366116989369e-07
  outer loop
    vertex 24.179601590856517 18.20445811860037 48.34450822369225
    vertex 30.018571271031803 18.204458902556446 48.50342246782198
    vertex 24.20052273569942 18.20445805409921 48.892318882432
  endloop
endfacet
facet normal 3.3647464230346374e-07 -0.9999999999999349 -1.3059366116989369e-07
  outer loop
    vertex 24.20052273569942 18.20445805409921 48.892318882432
    vertex 30.018571271031803 18.204458902556446 48.50342246782198
    vertex 30.039492415874705 18.204458838055285 49.05123312656172
  endloop
endfacet
facet normal 3.3647464230346374e-07 -0.9999999999999349 -1.3059366116989369e-07
  outer loop
    vertex 24.20052273569942 18.20445805409921 48.892318882432
    vertex 30.039492415874705 18.204458838055285 49.05123312656172
    vertex 24.078947178226716 18.204457943382057 49.426878136355825
  endloop
endfacet
facet normal 3.3647464230346374e-07 -0.9999999999999349 -1.3059366116989369e-07
  outer loop
    vertex 24.078947178226716 18.204457943382057 49.426878136355825
    vertex 30.039492415874705 18.204458838055285 49.05123312656172
    vertex 30.201484521585996 18.204458824165744 49.57496279902418
  endloop
endfacet
facet normal 3.3647464230346374e-07 -0.9999999999999349 -1.3059366116989369e-07
  outer loop
    vertex 24.078947178226716 18.204457943382057 49.426878136355825
    vertex 30.201484521585996 18.204458824165744 49.57496279902418
    vertex 23.82316009176706 18.20445779399413 49.91175665570977
  endloop
endfacet
facet normal 3.3647464230346374e-07 -0.9999999999999349 -1.3059366116989369e-07
  outer loop
    vertex 23.82316009176706 18.20445779399413 49.91175665570977
    vertex 30.201484521585996 18.204458824165744 49.57496279902418
    vertex 30.49350809386606 18.20445886183438 50.03892017353525
  endloop
endfacet
facet normal 3.3647464230346374e-07 -0.9999999999999349 -1.3059366116989369e-07
  outer loop
    vertex 23.82316009176706 18.20445779399413 49.91175665570977
    vertex 30.49350809386606 18.20445886183438 50.03892017353525
    vertex 23.450592943554543 18.204457616115956 50.313910770699486
  endloop
endfacet
facet normal 3.3647464230346374e-07 -0.9999999999999349 -1.3059366116989369e-07
  outer loop
    vertex 23.450592943554543 18.204457616115956 50.313910770699486
    vertex 30.49350809386606 18.20445886183438 50.03892017353525
    vertex 30.895662208855786 18.204458948494135 50.411487321747806
  endloop
endfacet
facet normal 3.3647464230346374e-07 -0.9999999999999349 -1.3059366116989369e-07
  outer loop
    vertex 23.450592943554543 18.204457616115956 50.313910770699486
    vertex 30.895662208855786 18.204458948494135 50.411487321747806
    vertex 22.98663556904351 18.204457421869638 50.60593434297955
  endloop
endfacet
facet normal 3.3647464230346374e-07 -0.9999999999999349 -1.3059366116989369e-07
  outer loop
    vertex 22.98663556904351 18.204457421869638 50.60593434297955
    vertex 30.895662208855786 18.204458948494135 50.411487321747806
    vertex 31.380540728209724 18.204459078239292 50.6672744082075
  endloop
endfacet
facet normal 3.3647464230346374e-07 -0.9999999999999349 -1.3059366116989369e-07
  outer loop
    vertex 22.98663556904351 18.204457421869638 50.60593434297955
    vertex 31.380540728209724 18.204459078239292 50.6672744082075
    vertex 22.462905896581084 18.20445722449274 50.76792644869083
  endloop
endfacet
facet normal 3.3647464230346374e-07 -0.9999999999999349 -1.3059366116989369e-07
  outer loop
    vertex 22.462905896581084 18.20445722449274 50.76792644869083
    vertex 31.380540728209724 18.204459078239292 50.6672744082075
    vertex 31.91509998213353 18.204459242227927 50.78884996568022
  endloop
endfacet
facet normal 3.3647464230346374e-07 -0.9999999999999349 -1.3059366116989369e-07
  outer loop
    vertex 22.462905896581084 18.20445722449274 50.76792644869083
    vertex 31.91509998213353 18.204459242227927 50.78884996568022
    vertex 21.915095237841363 18.204457037436175 50.7888475935337
  endloop
endfacet
facet normal 3.3647464230346374e-07 -0.9999999999999349 -1.3059366116989369e-07
  outer loop
    vertex 40.56347761918815 18.20447436010286 -5.544679836055725
    vertex 37.5998152480305 18.204471234366537 3.2076051922173243
    vertex 16.619282638294983 18.204457198013227 3.2076051922130975
  endloop
endfacet
facet normal 3.3647464230346374e-07 -0.9999999999999349 -1.3059366116989369e-07
  outer loop
    vertex 37.5998152480305 18.204471234366537 3.2076051922173243
    vertex 40.56347761918815 18.20447436010286 -5.544679836055725
    vertex 40.56347761918785 18.204458254300665 52.947871222729376
  endloop
endfacet
facet normal 3.3647464230346374e-07 -0.9999999999999349 -1.3059366116989369e-07
  outer loop
    vertex 37.5998152480305 18.204471234366537 3.2076051922173243
    vertex 40.56347761918785 18.204458254300665 52.947871222729376
    vertex 37.59981524803056 18.204458905632727 44.188137357198514
  endloop
endfacet
facet normal 3.3647464230346374e-07 -0.9999999999999349 -1.3059366116989369e-07
  outer loop
    vertex 37.59981524803056 18.204458905632727 44.188137357198514
    vertex 40.56347761918785 18.204458254300665 52.947871222729376
    vertex 33.323436542167606 18.204460212953265 46.984256400652676
  endloop
endfacet
facet normal 3.3647464230346374e-07 -0.9999999999999349 -1.3059366116989369e-07
  outer loop
    vertex 37.59981524803056 18.204458905632727 44.188137357198514
    vertex 33.323436542167606 18.204460212953265 46.984256400652676
    vertex 32.83855802281367 18.20446008320811 46.72846931419299
  endloop
endfacet
facet normal 3.3647464230346374e-07 -0.9999999999999349 -1.3059366116989369e-07
  outer loop
    vertex 37.59981524803056 18.204458905632727 44.188137357198514
    vertex 32.83855802281367 18.20446008320811 46.72846931419299
    vertex 32.30399876888986 18.204459919219474 46.60689375672026
  endloop
endfacet
facet normal 3.3647464230346374e-07 -0.9999999999999349 -1.3059366116989369e-07
  outer loop
    vertex 37.59981524803056 18.204458905632727 44.188137357198514
    vertex 32.30399876888986 18.204459919219474 46.60689375672026
    vertex 22.303994024597692 18.204457714427726 46.60689138457375
  endloop
endfacet
facet normal 3.3647464230346374e-07 -0.9999999999999349 -1.3059366116989369e-07
  outer loop
    vertex 33.323436542167606 18.204460212953265 46.984256400652676
    vertex 40.56347761918785 18.204458254300665 52.947871222729376
    vertex 33.725590657157326 18.20446029961302 47.356823548865236
  endloop
endfacet
facet normal 3.3647464230346374e-07 -0.9999999999999349 -1.3059366116989369e-07
  outer loop
    vertex 33.725590657157326 18.20446029961302 47.356823548865236
    vertex 40.56347761918785 18.204458254300665 52.947871222729376
    vertex 34.01761422943739 18.204460337281656 47.8207809233763
  endloop
endfacet
facet normal 3.3647464230346374e-07 -0.9999999999999349 -1.3059366116989369e-07
  outer loop
    vertex 34.01761422943739 18.204460337281656 47.8207809233763
    vertex 40.56347761918785 18.204458254300665 52.947871222729376
    vertex 34.17960633514868 18.20446032339212 48.34451059583876
  endloop
endfacet
facet normal 3.3647464230346374e-07 -0.9999999999999349 -1.3059366116989369e-07
  outer loop
    vertex 34.17960633514868 18.20446032339212 48.34451059583876
    vertex 40.56347761918785 18.204458254300665 52.947871222729376
    vertex 34.200527479991585 18.204460258890954 48.89232125457851
  endloop
endfacet
facet normal 3.3647464230346374e-07 -0.9999999999999349 -1.3059366116989369e-07
  outer loop
    vertex 34.200527479991585 18.204460258890954 48.89232125457851
    vertex 40.56347761918785 18.204458254300665 52.947871222729376
    vertex 34.07895192251888 18.204460148173812 49.426880508502336
  endloop
endfacet
facet normal 3.3647464230346374e-07 -0.9999999999999349 -1.3059366116989369e-07
  outer loop
    vertex 34.07895192251888 18.204460148173812 49.426880508502336
    vertex 40.56347761918785 18.204458254300665 52.947871222729376
    vertex 33.82316483605923 18.204459998785882 49.911759027856284
  endloop
endfacet
facet normal 3.3647464230346374e-07 -0.9999999999999349 -1.3059366116989369e-07
  outer loop
    vertex 33.82316483605923 18.204459998785882 49.911759027856284
    vertex 40.56347761918785 18.204458254300665 52.947871222729376
    vertex 33.45059768784671 18.204459820907704 50.31391314284601
  endloop
endfacet
facet normal 3.3647464230346374e-07 -0.9999999999999349 -1.3059366116989369e-07
  outer loop
    vertex 33.45059768784671 18.204459820907704 50.31391314284601
    vertex 40.56347761918785 18.204458254300665 52.947871222729376
    vertex 32.98664031333568 18.204459626661386 50.60593671512607
  endloop
endfacet
facet normal 3.3647464230346374e-07 -0.9999999999999349 -1.3059366116989369e-07
  outer loop
    vertex 32.98664031333568 18.204459626661386 50.60593671512607
    vertex 40.56347761918785 18.204458254300665 52.947871222729376
    vertex 32.46291064087325 18.20445942928449 50.76792882083735
  endloop
endfacet
facet normal 3.3647464230346374e-07 -0.9999999999999349 -1.3059366116989369e-07
  outer loop
    vertex 32.46291064087325 18.20445942928449 50.76792882083735
    vertex 40.56347761918785 18.204458254300665 52.947871222729376
    vertex 31.91509998213353 18.204459242227927 50.78884996568022
  endloop
endfacet
facet normal 3.3647464230346374e-07 -0.9999999999999349 -1.3059366116989369e-07
  outer loop
    vertex 31.91509998213353 18.204459242227927 50.78884996568022
    vertex 40.56347761918785 18.204458254300665 52.947871222729376
    vertex 13.655620267137666 18.20445766753479 52.94787122272919
  endloop
endfacet
facet normal 3.3647464230346374e-07 -0.9999999999999349 -1.3059366116989369e-07
  outer loop
    vertex 13.655620267138367 18.20445683924538 -5.544679836061164
    vertex 16.619282638294983 18.204457198013227 3.2076051922130975
    vertex 13.655620267137666 18.20445766753479 52.94787122272919
  endloop
endfacet
facet normal 3.3647464230346374e-07 -0.9999999999999349 -1.3059366116989369e-07
  outer loop
    vertex 16.619282638294983 18.204457198013227 3.2076051922130975
    vertex 13.655620267138367 18.20445683924538 -5.544679836061164
    vertex 40.56347761918815 18.20447436010286 -5.544679836055725
  endloop
endfacet
facet normal 3.3647464230346374e-07 -0.9999999999999349 -1.3059366116989369e-07
  outer loop
    vertex 13.655620267137666 18.20445766753479 52.94787122272919
    vertex 16.619282638294983 18.204457198013227 3.2076051922130975
    vertex 16.619282638294983 18.204458823151622 44.188137357198485
  endloop
endfacet
facet normal 3.3647464230346374e-07 -0.9999999999999349 -1.3059366116989369e-07
  outer loop
    vertex 13.655620267137666 18.20445766753479 52.94787122272919
    vertex 16.619282638294983 18.204458823151622 44.188137357198485
    vertex 20.768496318884516 18.204457135747944 47.08182820740796
  endloop
endfacet
facet normal 3.3647464230346374e-07 -0.9999999999999349 -1.3059366116989369e-07
  outer loop
    vertex 20.768496318884516 18.204457135747944 47.08182820740796
    vertex 16.619282638294983 18.204458823151622 44.188137357198485
    vertex 21.232453693395545 18.204457329994263 46.7898046351279
  endloop
endfacet
facet normal 3.3647464230346374e-07 -0.9999999999999349 -1.3059366116989369e-07
  outer loop
    vertex 21.232453693395545 18.204457329994263 46.7898046351279
    vertex 16.619282638294983 18.204458823151622 44.188137357198485
    vertex 21.756183365857975 18.20445752737116 46.62781252941663
  endloop
endfacet
facet normal 3.3647464230346374e-07 -0.9999999999999349 -1.3059366116989369e-07
  outer loop
    vertex 21.756183365857975 18.20445752737116 46.62781252941663
    vertex 16.619282638294983 18.204458823151622 44.188137357198485
    vertex 37.59981524803056 18.204458905632727 44.188137357198514
  endloop
endfacet
facet normal 3.3647464230346374e-07 -0.9999999999999349 -1.3059366116989369e-07
  outer loop
    vertex 21.756183365857975 18.20445752737116 46.62781252941663
    vertex 37.59981524803056 18.204458905632727 44.188137357198514
    vertex 22.303994024597692 18.204457714427726 46.60689138457375
  endloop
endfacet
facet normal 3.3647464230346374e-07 -0.9999999999999349 -1.3059366116989369e-07
  outer loop
    vertex 13.655620267137666 18.20445766753479 52.94787122272919
    vertex 20.768496318884516 18.204457135747944 47.08182820740796
    vertex 20.39592917067199 18.20445695786977 47.48398232239769
  endloop
endfacet
facet normal 3.3647464230346374e-07 -0.9999999999999349 -1.3059366116989369e-07
  outer loop
    vertex 13.655620267137666 18.20445766753479 52.94787122272919
    vertex 20.39592917067199 18.20445695786977 47.48398232239769
    vertex 20.140142084212343 18.204456808481844 47.968860841751635
  endloop
endfacet
facet normal 3.3647464230346374e-07 -0.9999999999999349 -1.3059366116989369e-07
  outer loop
    vertex 13.655620267137666 18.20445766753479 52.94787122272919
    vertex 20.140142084212343 18.204456808481844 47.968860841751635
    vertex 20.018566526739637 18.2044566977647 48.50342009567547
  endloop
endfacet
facet normal 3.3647464230346374e-07 -0.9999999999999349 -1.3059366116989369e-07
  outer loop
    vertex 13.655620267137666 18.20445766753479 52.94787122272919
    vertex 20.018566526739637 18.2044566977647 48.50342009567547
    vertex 20.039487671582542 18.20445663326353 49.051230754415215
  endloop
endfacet
facet normal 3.3647464230346374e-07 -0.9999999999999349 -1.3059366116989369e-07
  outer loop
    vertex 13.655620267137666 18.20445766753479 52.94787122272919
    vertex 20.039487671582542 18.20445663326353 49.051230754415215
    vertex 20.20147977729383 18.204456619374 49.574960426877695
  endloop
endfacet
facet normal 3.3647464230346374e-07 -0.9999999999999349 -1.3059366116989369e-07
  outer loop
    vertex 13.655620267137666 18.20445766753479 52.94787122272919
    vertex 20.20147977729383 18.204456619374 49.574960426877695
    vertex 20.493503349573896 18.204456657042627 50.038917801388735
  endloop
endfacet
facet normal 3.3647464230346374e-07 -0.9999999999999349 -1.3059366116989369e-07
  outer loop
    vertex 13.655620267137666 18.20445766753479 52.94787122272919
    vertex 20.493503349573896 18.204456657042627 50.038917801388735
    vertex 20.89565746456362 18.204456743702387 50.411484949601295
  endloop
endfacet
facet normal 3.3647464230346374e-07 -0.9999999999999349 -1.3059366116989369e-07
  outer loop
    vertex 13.655620267137666 18.20445766753479 52.94787122272919
    vertex 20.89565746456362 18.204456743702387 50.411484949601295
    vertex 21.380535983917554 18.204456873447544 50.667272036060965
  endloop
endfacet
facet normal 3.3647464230346374e-07 -0.9999999999999349 -1.3059366116989369e-07
  outer loop
    vertex 13.655620267137666 18.20445766753479 52.94787122272919
    vertex 21.380535983917554 18.204456873447544 50.667272036060965
    vertex 21.915095237841363 18.204457037436175 50.7888475935337
  endloop
endfacet
facet normal 3.3647464230346374e-07 -0.9999999999999349 -1.3059366116989369e-07
  outer loop
    vertex 13.655620267137666 18.20445766753479 52.94787122272919
    vertex 21.915095237841363 18.204457037436175 50.7888475935337
    vertex 31.91509998213353 18.204459242227927 50.78884996568022
  endloop
endfacet
facet normal -3.364746423034638e-07 0.9999999999999349 1.3059366057767157e-07
  outer loop
    vertex 13.655611687035002 43.70445683924372 -5.54467650592282
    vertex 16.619274058191614 43.70445719801156 3.207608522351438
    vertex 40.56346903908474 43.7044743601012 -5.54467650591738
  endloop
endfacet
facet normal -3.364746423034638e-07 0.9999999999999349 1.3059366057767157e-07
  outer loop
    vertex 16.619274058191614 43.70445719801156 3.207608522351438
    vertex 13.655611687035002 43.70445683924372 -5.54467650592282
    vertex 13.655611687034312 43.70445855505702 46.15180305849426
  endloop
endfacet
facet normal -3.364746423034638e-07 0.9999999999999349 1.3059366057767157e-07
  outer loop
    vertex 16.619274058191614 43.70445719801156 3.207608522351438
    vertex 13.655611687034312 43.70445855505702 46.15180305849426
    vertex 16.619274058191614 43.704458823149956 44.188140687336826
  endloop
endfacet
facet normal -3.364746423034638e-07 0.9999999999999349 1.3059366057767157e-07
  outer loop
    vertex 16.619274058191614 43.704458823149956 44.188140687336826
    vertex 13.655611687034312 43.70445855505702 46.15180305849426
    vertex 37.599806667927155 43.704458905631064 44.18814068733685
  endloop
endfacet
facet normal -3.364746423034638e-07 0.9999999999999349 1.3059366057767157e-07
  outer loop
    vertex 40.56346903908474 43.7044743601012 -5.54467650591738
    vertex 37.5998066679271 43.704471234364874 3.2076085223556654
    vertex 40.56346903908446 43.704459141822895 46.15180305849443
  endloop
endfacet
facet normal -3.364746423034638e-07 0.9999999999999349 1.3059366057767157e-07
  outer loop
    vertex 37.5998066679271 43.704471234364874 3.2076085223556654
    vertex 40.56346903908474 43.7044743601012 -5.54467650591738
    vertex 16.619274058191614 43.70445719801156 3.207608522351438
  endloop
endfacet
facet normal -3.364746423034638e-07 0.9999999999999349 1.3059366057767157e-07
  outer loop
    vertex 40.56346903908446 43.704459141822895 46.15180305849443
    vertex 37.5998066679271 43.704471234364874 3.2076085223556654
    vertex 37.599806667927155 43.704458905631064 44.18814068733685
  endloop
endfacet
facet normal -3.364746423034638e-07 0.9999999999999349 1.3059366057767157e-07
  outer loop
    vertex 40.56346903908446 43.704459141822895 46.15180305849443
    vertex 37.599806667927155 43.704458905631064 44.18814068733685
    vertex 13.655611687034312 43.70445855505702 46.15180305849426
  endloop
endfacet
facet normal 1.1716503013999647e-13 1.305936605777184e-07 -0.9999999999999915
  outer loop
    vertex 40.56346903908474 43.7044743601012 -5.54467650591738
    vertex 13.655620267138367 18.20445683924538 -5.544679836061164
    vertex 13.655611687035002 43.70445683924372 -5.54467650592282
  endloop
endfacet
facet normal 1.1716503013999647e-13 1.305936605777184e-07 -0.9999999999999915
  outer loop
    vertex 13.655620267138367 18.20445683924538 -5.544679836061164
    vertex 40.56346903908474 43.7044743601012 -5.54467650591738
    vertex 40.56347761918815 18.20447436010286 -5.544679836055725
  endloop
endfacet
facet normal -0.9999999999999435 -3.364746423034688e-07 1.673337471209524e-14
  outer loop
    vertex 13.655620267137666 18.20445766753479 52.94787122272919
    vertex 13.655611687035002 43.70445683924372 -5.54467650592282
    vertex 13.655620267138367 18.20445683924538 -5.544679836061164
  endloop
endfacet
facet normal -0.9999999999999435 -3.364746423034688e-07 1.673337471209524e-14
  outer loop
    vertex 13.655611687035002 43.70445683924372 -5.54467650592282
    vertex 13.655620267137666 18.20445766753479 52.94787122272919
    vertex 13.655618248289635 24.20445914182411 46.15180051191801
  endloop
endfacet
facet normal -0.9999999999999435 -3.364746423034688e-07 1.673337471209524e-14
  outer loop
    vertex 13.655618248289635 24.20445914182411 46.15180051191801
    vertex 13.655620267137666 18.20445766753479 52.94787122272919
    vertex 13.65561824828962 24.20445825430022 52.947872006291284
  endloop
endfacet
facet normal -0.9999999999999435 -3.364746423034688e-07 1.673337471209524e-14
  outer loop
    vertex 13.655611687035002 43.70445683924372 -5.54467650592282
    vertex 13.655618248289635 24.20445914182411 46.15180051191801
    vertex 13.655611687034312 43.70445855505702 46.15180305849426
  endloop
endfacet
facet normal -1.1410916214938331e-13 -1.3059366057771733e-07 0.9999999999999915
  outer loop
    vertex 16.619282638294983 18.204457198013227 3.2076051922130975
    vertex 37.5998066679271 43.704471234364874 3.2076085223556654
    vertex 16.619274058191614 43.70445719801156 3.207608522351438
  endloop
endfacet
facet normal -1.1410916214938331e-13 -1.3059366057771733e-07 0.9999999999999915
  outer loop
    vertex 37.5998066679271 43.704471234364874 3.2076085223556654
    vertex 16.619282638294983 18.204457198013227 3.2076051922130975
    vertex 37.5998152480305 18.204471234366537 3.2076051922173243
  endloop
endfacet
facet normal -0.9999999999999435 -3.364746423034537e-07 -9.985002030752978e-14
  outer loop
    vertex 37.599806667927155 43.704458905631064 44.18814068733685
    vertex 37.5998152480305 18.204471234366537 3.2076051922173243
    vertex 37.59981524803056 18.204458905632727 44.188137357198514
  endloop
endfacet
facet normal -0.9999999999999435 -3.364746423034537e-07 -9.985002030752978e-14
  outer loop
    vertex 37.5998152480305 18.204471234366537 3.2076051922173243
    vertex 37.599806667927155 43.704458905631064 44.18814068733685
    vertex 37.5998066679271 43.704471234364874 3.2076085223556654
  endloop
endfacet
facet normal 5.618647919933113e-16 1.3059366057767917e-07 -0.9999999999999916
  outer loop
    vertex 37.599806667927155 43.704458905631064 44.18814068733685
    vertex 16.619282638294983 18.204458823151622 44.188137357198485
    vertex 16.619274058191614 43.704458823149956 44.188140687336826
  endloop
endfacet
facet normal 5.618647919933113e-16 1.3059366057767917e-07 -0.9999999999999916
  outer loop
    vertex 16.619282638294983 18.204458823151622 44.188137357198485
    vertex 37.599806667927155 43.704458905631064 44.18814068733685
    vertex 37.59981524803056 18.204458905632727 44.188137357198514
  endloop
endfacet
facet normal 0.9999999999999434 3.364746423034684e-07 -1.3343356750222957e-14
  outer loop
    vertex 16.619274058191614 43.70445719801156 3.207608522351438
    vertex 16.619282638294983 18.204458823151622 44.188137357198485
    vertex 16.619282638294983 18.204457198013227 3.2076051922130975
  endloop
endfacet
facet normal 0.9999999999999434 3.364746423034684e-07 -1.3343356750222957e-14
  outer loop
    vertex 16.619282638294983 18.204458823151622 44.188137357198485
    vertex 16.619274058191614 43.70445719801156 3.207608522351438
    vertex 16.619274058191614 43.704458823149956 44.188140687336826
  endloop
endfacet
facet normal -2.7681394931690796e-15 -1.3059366506897655e-07 0.9999999999999916
  outer loop
    vertex 13.655620267137666 18.20445766753479 52.94787122272919
    vertex 40.56347560033999 24.204458254300274 52.94787200629134
    vertex 13.65561824828962 24.20445825430022 52.947872006291284
  endloop
endfacet
facet normal -2.7681394931690796e-15 -1.3059366506897655e-07 0.9999999999999916
  outer loop
    vertex 40.56347560033999 24.204458254300274 52.94787200629134
    vertex 13.655620267137666 18.20445766753479 52.94787122272919
    vertex 40.56347761918785 18.204458254300665 52.947871222729376
  endloop
endfacet
facet normal 0.9999999999999435 3.3647464230345405e-07 9.638023616916439e-14
  outer loop
    vertex 40.56347761918815 18.20447436010286 -5.544679836055725
    vertex 40.56347560033999 24.204458254300274 52.94787200629134
    vertex 40.56347761918785 18.204458254300665 52.947871222729376
  endloop
endfacet
facet normal 0.9999999999999435 3.3647464230345405e-07 9.638023616916439e-14
  outer loop
    vertex 40.56347560033999 24.204458254300274 52.94787200629134
    vertex 40.56347761918815 18.20447436010286 -5.544679836055725
    vertex 40.563475600340006 24.204459141824163 46.15180051191806
  endloop
endfacet
facet normal 0.9999999999999435 3.3647464230345405e-07 9.638023616916439e-14
  outer loop
    vertex 40.563475600340006 24.204459141824163 46.15180051191806
    vertex 40.56347761918815 18.20447436010286 -5.544679836055725
    vertex 40.56346903908474 43.7044743601012 -5.54467650591738
  endloop
endfacet
facet normal 0.9999999999999435 3.3647464230345405e-07 9.638023616916439e-14
  outer loop
    vertex 40.563475600340006 24.204459141824163 46.15180051191806
    vertex 40.56346903908474 43.7044743601012 -5.54467650591738
    vertex 40.56347549939761 24.504459141824142 46.15180055109615
  endloop
endfacet
facet normal 0.9999999999999435 3.3647464230345405e-07 9.638023616916439e-14
  outer loop
    vertex 40.56347549939761 24.504459141824142 46.15180055109615
    vertex 40.56346903908474 43.7044743601012 -5.54467650591738
    vertex 40.56346903908446 43.704459141822895 46.15180305849443
  endloop
endfacet
facet normal 1.7743949600470873e-11 0.9999999999999916 1.306696547424641e-07
  outer loop
    vertex 13.65561824828962 24.20445825430022 52.947872006291284
    vertex 18.609542629718355 24.2044591433734 46.15180051191803
    vertex 13.655618248289635 24.20445914182411 46.15180051191801
  endloop
endfacet
facet normal 1.7743949600470873e-11 0.9999999999999916 1.306696547424641e-07
  outer loop
    vertex 18.609542629718355 24.2044591433734 46.15180051191803
    vertex 13.65561824828962 24.20445825430022 52.947872006291284
    vertex 20.768494300036195 24.204458527755552 47.081828990970116
  endloop
endfacet
facet normal 1.7743949600470873e-11 0.9999999999999916 1.306696547424641e-07
  outer loop
    vertex 18.609542629718355 24.2044591433734 46.15180051191803
    vertex 20.768494300036195 24.204458527755552 47.081828990970116
    vertex 21.232451674547228 24.20445872200187 46.789805418690065
  endloop
endfacet
facet normal 1.7743949600470873e-11 0.9999999999999916 1.306696547424641e-07
  outer loop
    vertex 18.609542629718355 24.2044591433734 46.15180051191803
    vertex 21.232451674547228 24.20445872200187 46.789805418690065
    vertex 21.756181347009658 24.20445891937877 46.62781331297879
  endloop
endfacet
facet normal 1.7743949600470873e-11 0.9999999999999916 1.306696547424641e-07
  outer loop
    vertex 18.609542629718355 24.2044591433734 46.15180051191803
    vertex 21.756181347009658 24.20445891937877 46.62781331297879
    vertex 25.609542629718355 24.204459143373413 46.15180051191803
  endloop
endfacet
facet normal 1.7743949600470873e-11 0.9999999999999916 1.306696547424641e-07
  outer loop
    vertex 25.609542629718355 24.204459143373413 46.15180051191803
    vertex 21.756181347009658 24.20445891937877 46.62781331297879
    vertex 28.609542389683835 24.20445914182414 46.15180051191805
  endloop
endfacet
facet normal 1.7743949600470873e-11 0.9999999999999916 1.306696547424641e-07
  outer loop
    vertex 28.609542389683835 24.20445914182414 46.15180051191805
    vertex 21.756181347009658 24.20445891937877 46.62781331297879
    vertex 22.303992005749375 24.204459106435333 46.60689216813591
  endloop
endfacet
facet normal 1.7743949600470873e-11 0.9999999999999916 1.306696547424641e-07
  outer loop
    vertex 28.609542389683835 24.20445914182414 46.15180051191805
    vertex 22.303992005749375 24.204459106435333 46.60689216813591
    vertex 35.60954355450041 24.204459141824156 46.15180051191805
  endloop
endfacet
facet normal 1.7743949600470873e-11 0.9999999999999916 1.306696547424641e-07
  outer loop
    vertex 35.60954355450041 24.204459141824156 46.15180051191805
    vertex 22.303992005749375 24.204459106435333 46.60689216813591
    vertex 40.563475600340006 24.204459141824163 46.15180051191806
  endloop
endfacet
facet normal 1.7743949600470873e-11 0.9999999999999916 1.306696547424641e-07
  outer loop
    vertex 20.768494300036195 24.204458527755552 47.081828990970116
    vertex 13.65561824828962 24.20445825430022 52.947872006291284
    vertex 20.395927151823674 24.204458349877378 47.483983105959844
  endloop
endfacet
facet normal 1.7743949600470873e-11 0.9999999999999916 1.306696547424641e-07
  outer loop
    vertex 20.395927151823674 24.204458349877378 47.483983105959844
    vertex 13.65561824828962 24.20445825430022 52.947872006291284
    vertex 20.140140065364022 24.20445820048945 47.96886162531379
  endloop
endfacet
facet normal 1.7743949600470873e-11 0.9999999999999916 1.306696547424641e-07
  outer loop
    vertex 20.140140065364022 24.20445820048945 47.96886162531379
    vertex 13.65561824828962 24.20445825430022 52.947872006291284
    vertex 20.01856450789132 24.20445808977231 48.50342087923763
  endloop
endfacet
facet normal 1.7743949600470873e-11 0.9999999999999916 1.306696547424641e-07
  outer loop
    vertex 20.01856450789132 24.20445808977231 48.50342087923763
    vertex 13.65561824828962 24.20445825430022 52.947872006291284
    vertex 20.03948565273422 24.204458025271137 49.05123153797737
  endloop
endfacet
facet normal 1.7743949600470873e-11 0.9999999999999916 1.306696547424641e-07
  outer loop
    vertex 20.03948565273422 24.204458025271137 49.05123153797737
    vertex 13.65561824828962 24.20445825430022 52.947872006291284
    vertex 20.201477758445513 24.204458011381607 49.57496121043985
  endloop
endfacet
facet normal 1.7743949600470873e-11 0.9999999999999916 1.306696547424641e-07
  outer loop
    vertex 20.201477758445513 24.204458011381607 49.57496121043985
    vertex 13.65561824828962 24.20445825430022 52.947872006291284
    vertex 20.493501330725575 24.204458049050235 50.03891858495089
  endloop
endfacet
facet normal 1.7743949600470873e-11 0.9999999999999916 1.306696547424641e-07
  outer loop
    vertex 20.493501330725575 24.204458049050235 50.03891858495089
    vertex 13.65561824828962 24.20445825430022 52.947872006291284
    vertex 20.895655445715303 24.20445813570999 50.41148573316345
  endloop
endfacet
facet normal 1.7743949600470873e-11 0.9999999999999916 1.306696547424641e-07
  outer loop
    vertex 20.895655445715303 24.20445813570999 50.41148573316345
    vertex 13.65561824828962 24.20445825430022 52.947872006291284
    vertex 21.380533965069237 24.204458265455152 50.66727281962313
  endloop
endfacet
facet normal 1.7743949600470873e-11 0.9999999999999916 1.306696547424641e-07
  outer loop
    vertex 21.380533965069237 24.204458265455152 50.66727281962313
    vertex 13.65561824828962 24.20445825430022 52.947872006291284
    vertex 21.915093218993047 24.204458429443783 50.78884837709586
  endloop
endfacet
facet normal 1.7743949600470873e-11 0.9999999999999916 1.306696547424641e-07
  outer loop
    vertex 21.915093218993047 24.204458429443783 50.78884837709586
    vertex 13.65561824828962 24.20445825430022 52.947872006291284
    vertex 31.915094161122248 24.204458470827728 50.7888488481602
  endloop
endfacet
facet normal 1.7743949600470873e-11 0.9999999999999916 1.306696547424641e-07
  outer loop
    vertex 40.563475600340006 24.204459141824163 46.15180051191806
    vertex 33.32343072115632 24.20445944155307 46.98425528313266
    vertex 40.56347560033999 24.204458254300274 52.94787200629134
  endloop
endfacet
facet normal 1.7743949600470873e-11 0.9999999999999916 1.306696547424641e-07
  outer loop
    vertex 33.32343072115632 24.20445944155307 46.98425528313266
    vertex 40.563475600340006 24.204459141824163 46.15180051191806
    vertex 32.83855220180239 24.204459311807913 46.72846819667297
  endloop
endfacet
facet normal 1.7743949600470873e-11 0.9999999999999916 1.306696547424641e-07
  outer loop
    vertex 32.83855220180239 24.204459311807913 46.72846819667297
    vertex 40.563475600340006 24.204459141824163 46.15180051191806
    vertex 32.30399294787858 24.204459147819275 46.60689263920025
  endloop
endfacet
facet normal 1.7743949600470873e-11 0.9999999999999916 1.306696547424641e-07
  outer loop
    vertex 32.30399294787858 24.204459147819275 46.60689263920025
    vertex 40.563475600340006 24.204459141824163 46.15180051191806
    vertex 22.303992005749375 24.204459106435333 46.60689216813591
  endloop
endfacet
facet normal 1.7743949600470873e-11 0.9999999999999916 1.306696547424641e-07
  outer loop
    vertex 40.56347560033999 24.204458254300274 52.94787200629134
    vertex 33.32343072115632 24.20445944155307 46.98425528313266
    vertex 33.72558483614605 24.204459528212823 47.356822431345215
  endloop
endfacet
facet normal 1.7743949600470873e-11 0.9999999999999916 1.306696547424641e-07
  outer loop
    vertex 40.56347560033999 24.204458254300274 52.94787200629134
    vertex 33.72558483614605 24.204459528212823 47.356822431345215
    vertex 34.01760840842611 24.20445956588146 47.82077980585629
  endloop
endfacet
facet normal 1.7743949600470873e-11 0.9999999999999916 1.306696547424641e-07
  outer loop
    vertex 40.56347560033999 24.204458254300274 52.94787200629134
    vertex 34.01760840842611 24.20445956588146 47.82077980585629
    vertex 34.1796005141374 24.20445955199192 48.34450947831875
  endloop
endfacet
facet normal 1.7743949600470873e-11 0.9999999999999916 1.306696547424641e-07
  outer loop
    vertex 40.56347560033999 24.204458254300274 52.94787200629134
    vertex 34.1796005141374 24.20445955199192 48.34450947831875
    vertex 34.20052165898031 24.20445948749076 48.892320137058505
  endloop
endfacet
facet normal 1.7743949600470873e-11 0.9999999999999916 1.306696547424641e-07
  outer loop
    vertex 40.56347560033999 24.204458254300274 52.94787200629134
    vertex 34.20052165898031 24.20445948749076 48.892320137058505
    vertex 34.078946101507604 24.204459376773613 49.42687939098232
  endloop
endfacet
facet normal 1.7743949600470873e-11 0.9999999999999916 1.306696547424641e-07
  outer loop
    vertex 40.56347560033999 24.204458254300274 52.94787200629134
    vertex 34.078946101507604 24.204459376773613 49.42687939098232
    vertex 33.82315901504795 24.204459227385687 49.91175791033628
  endloop
endfacet
facet normal 1.7743949600470873e-11 0.9999999999999916 1.306696547424641e-07
  outer loop
    vertex 40.56347560033999 24.204458254300274 52.94787200629134
    vertex 33.82315901504795 24.204459227385687 49.91175791033628
    vertex 33.450591866835424 24.204459049507506 50.31391202532601
  endloop
endfacet
facet normal 1.7743949600470873e-11 0.9999999999999916 1.306696547424641e-07
  outer loop
    vertex 40.56347560033999 24.204458254300274 52.94787200629134
    vertex 33.450591866835424 24.204459049507506 50.31391202532601
    vertex 32.9866344923244 24.204458855261187 50.605935597606056
  endloop
endfacet
facet normal 1.7743949600470873e-11 0.9999999999999916 1.306696547424641e-07
  outer loop
    vertex 40.56347560033999 24.204458254300274 52.94787200629134
    vertex 32.9866344923244 24.204458855261187 50.605935597606056
    vertex 32.46290481986197 24.204458657884295 50.76792770331733
  endloop
endfacet
facet normal 1.7743949600470873e-11 0.9999999999999916 1.306696547424641e-07
  outer loop
    vertex 40.56347560033999 24.204458254300274 52.94787200629134
    vertex 32.46290481986197 24.204458657884295 50.76792770331733
    vertex 31.915094161122248 24.204458470827728 50.7888488481602
  endloop
endfacet
facet normal 1.7743949600470873e-11 0.9999999999999916 1.306696547424641e-07
  outer loop
    vertex 40.56347560033999 24.204458254300274 52.94787200629134
    vertex 31.915094161122248 24.204458470827728 50.7888488481602
    vertex 13.65561824828962 24.20445825430022 52.947872006291284
  endloop
endfacet
facet normal 1.7743949600470873e-11 0.9999999999999916 1.306696547424641e-07
  outer loop
    vertex 22.838551259673185 24.204459270423968 46.72846772560864
    vertex 32.30399294787858 24.204459147819275 46.60689263920025
    vertex 22.303992005749375 24.204459106435333 46.60689216813591
  endloop
endfacet
facet normal 1.7743949600470873e-11 0.9999999999999916 1.306696547424641e-07
  outer loop
    vertex 32.30399294787858 24.204459147819275 46.60689263920025
    vertex 22.838551259673185 24.204459270423968 46.72846772560864
    vertex 31.75618228913886 24.204458960762715 46.62781378404313
  endloop
endfacet
facet normal 1.7743949600470873e-11 0.9999999999999916 1.306696547424641e-07
  outer loop
    vertex 31.75618228913886 24.204458960762715 46.62781378404313
    vertex 22.838551259673185 24.204459270423968 46.72846772560864
    vertex 31.23245261667643 24.204458763385816 46.789805889754405
  endloop
endfacet
facet normal 1.7743949600470873e-11 0.9999999999999916 1.306696547424641e-07
  outer loop
    vertex 31.23245261667643 24.204458763385816 46.789805889754405
    vertex 22.838551259673185 24.204459270423968 46.72846772560864
    vertex 23.32342977902712 24.204459400169124 46.98425481206832
  endloop
endfacet
facet normal 1.7743949600470873e-11 0.9999999999999916 1.306696547424641e-07
  outer loop
    vertex 31.23245261667643 24.204458763385816 46.789805889754405
    vertex 23.32342977902712 24.204459400169124 46.98425481206832
    vertex 30.7684952421654 24.204458569139497 47.08182946203445
  endloop
endfacet
facet normal 1.7743949600470873e-11 0.9999999999999916 1.306696547424641e-07
  outer loop
    vertex 30.7684952421654 24.204458569139497 47.08182946203445
    vertex 23.32342977902712 24.204459400169124 46.98425481206832
    vertex 23.725583894016847 24.20445948682888 47.35682196028088
  endloop
endfacet
facet normal 1.7743949600470873e-11 0.9999999999999916 1.306696547424641e-07
  outer loop
    vertex 30.7684952421654 24.204458569139497 47.08182946203445
    vertex 23.725583894016847 24.20445948682888 47.35682196028088
    vertex 30.39592809395288 24.204458391261326 47.48398357702418
  endloop
endfacet
facet normal 1.7743949600470873e-11 0.9999999999999916 1.306696547424641e-07
  outer loop
    vertex 30.39592809395288 24.204458391261326 47.48398357702418
    vertex 23.725583894016847 24.20445948682888 47.35682196028088
    vertex 24.01760746629691 24.20445952449752 47.82077933479195
  endloop
endfacet
facet normal 1.7743949600470873e-11 0.9999999999999916 1.306696547424641e-07
  outer loop
    vertex 30.39592809395288 24.204458391261326 47.48398357702418
    vertex 24.01760746629691 24.20445952449752 47.82077933479195
    vertex 30.140141007493227 24.204458241873393 47.96886209637813
  endloop
endfacet
facet normal 1.7743949600470873e-11 0.9999999999999916 1.306696547424641e-07
  outer loop
    vertex 30.140141007493227 24.204458241873393 47.96886209637813
    vertex 24.01760746629691 24.20445952449752 47.82077933479195
    vertex 24.1795995720082 24.20445951060798 48.34450900725441
  endloop
endfacet
facet normal 1.7743949600470873e-11 0.9999999999999916 1.306696547424641e-07
  outer loop
    vertex 30.140141007493227 24.204458241873393 47.96886209637813
    vertex 24.1795995720082 24.20445951060798 48.34450900725441
    vertex 30.01856545002052 24.20445813115625 48.503421350301956
  endloop
endfacet
facet normal 1.7743949600470873e-11 0.9999999999999916 1.306696547424641e-07
  outer loop
    vertex 30.01856545002052 24.20445813115625 48.503421350301956
    vertex 24.1795995720082 24.20445951060798 48.34450900725441
    vertex 24.200520716851102 24.204459446106817 48.892319665994165
  endloop
endfacet
facet normal 1.7743949600470873e-11 0.9999999999999916 1.306696547424641e-07
  outer loop
    vertex 30.01856545002052 24.20445813115625 48.503421350301956
    vertex 24.200520716851102 24.204459446106817 48.892319665994165
    vertex 30.039486594863423 24.204458066655086 49.0512320090417
  endloop
endfacet
facet normal 1.7743949600470873e-11 0.9999999999999916 1.306696547424641e-07
  outer loop
    vertex 30.039486594863423 24.204458066655086 49.0512320090417
    vertex 24.200520716851102 24.204459446106817 48.892319665994165
    vertex 24.0789451593784 24.204459335389664 49.42687891991798
  endloop
endfacet
facet normal 1.7743949600470873e-11 0.9999999999999916 1.306696547424641e-07
  outer loop
    vertex 30.039486594863423 24.204458066655086 49.0512320090417
    vertex 24.0789451593784 24.204459335389664 49.42687891991798
    vertex 30.201478700574715 24.20445805276555 49.57496168150417
  endloop
endfacet
facet normal 1.7743949600470873e-11 0.9999999999999916 1.306696547424641e-07
  outer loop
    vertex 30.201478700574715 24.20445805276555 49.57496168150417
    vertex 24.0789451593784 24.204459335389664 49.42687891991798
    vertex 23.823158072918744 24.20445918600174 49.91175743927194
  endloop
endfacet
facet normal 1.7743949600470873e-11 0.9999999999999916 1.306696547424641e-07
  outer loop
    vertex 30.201478700574715 24.20445805276555 49.57496168150417
    vertex 23.823158072918744 24.20445918600174 49.91175743927194
    vertex 30.493502272854776 24.204458090434184 50.03891905601523
  endloop
endfacet
facet normal 1.7743949600470873e-11 0.9999999999999916 1.306696547424641e-07
  outer loop
    vertex 30.493502272854776 24.204458090434184 50.03891905601523
    vertex 23.823158072918744 24.20445918600174 49.91175743927194
    vertex 23.450590924706226 24.204459008123564 50.313911554261644
  endloop
endfacet
facet normal 1.7743949600470873e-11 0.9999999999999916 1.306696547424641e-07
  outer loop
    vertex 30.493502272854776 24.204458090434184 50.03891905601523
    vertex 23.450590924706226 24.204459008123564 50.313911554261644
    vertex 30.895656387844504 24.20445817709394 50.41148620422779
  endloop
endfacet
facet normal 1.7743949600470873e-11 0.9999999999999916 1.306696547424641e-07
  outer loop
    vertex 30.895656387844504 24.20445817709394 50.41148620422779
    vertex 23.450590924706226 24.204459008123564 50.313911554261644
    vertex 22.986633550195194 24.204458813877245 50.605935126541716
  endloop
endfacet
facet normal 1.7743949600470873e-11 0.9999999999999916 1.306696547424641e-07
  outer loop
    vertex 30.895656387844504 24.20445817709394 50.41148620422779
    vertex 22.986633550195194 24.204458813877245 50.605935126541716
    vertex 31.38053490719844 24.204458306839093 50.66727329068749
  endloop
endfacet
facet normal 1.7743949600470873e-11 0.9999999999999916 1.306696547424641e-07
  outer loop
    vertex 31.38053490719844 24.204458306839093 50.66727329068749
    vertex 22.986633550195194 24.204458813877245 50.605935126541716
    vertex 22.462903877732764 24.204458616500347 50.76792723225299
  endloop
endfacet
facet normal 1.7743949600470873e-11 0.9999999999999916 1.306696547424641e-07
  outer loop
    vertex 31.38053490719844 24.204458306839093 50.66727329068749
    vertex 22.462903877732764 24.204458616500347 50.76792723225299
    vertex 31.915094161122248 24.204458470827728 50.7888488481602
  endloop
endfacet
facet normal 1.7743949600470873e-11 0.9999999999999916 1.306696547424641e-07
  outer loop
    vertex 31.915094161122248 24.204458470827728 50.7888488481602
    vertex 22.462903877732764 24.204458616500347 50.76792723225299
    vertex 21.915093218993047 24.204458429443783 50.78884837709586
  endloop
endfacet
facet normal 1.7743949600470873e-11 0.9999999999999916 1.306696547424641e-07
  outer loop
    vertex 28.609542389683835 24.20445914182414 46.15180051191805
    vertex 35.60954355450041 24.204459272417818 45.15180051191805
    vertex 28.609542389683835 24.204459272417804 45.15180051191805
  endloop
endfacet
facet normal 1.7743949600470873e-11 0.9999999999999916 1.306696547424641e-07
  outer loop
    vertex 35.60954355450041 24.204459272417818 45.15180051191805
    vertex 28.609542389683835 24.20445914182414 46.15180051191805
    vertex 35.60954355450041 24.204459141824156 46.15180051191805
  endloop
endfacet
facet normal 1.7743949600470873e-11 0.9999999999999916 1.306696547424641e-07
  outer loop
    vertex 18.609542629718355 24.2044591433734 46.15180051191803
    vertex 25.609542629718355 24.204459273967075 45.15180051191803
    vertex 18.609542629718355 24.20445927396706 45.15180051191803
  endloop
endfacet
facet normal 1.7743949600470873e-11 0.9999999999999916 1.306696547424641e-07
  outer loop
    vertex 25.609542629718355 24.204459273967075 45.15180051191803
    vertex 18.609542629718355 24.2044591433734 46.15180051191803
    vertex 25.609542629718355 24.204459143373413 46.15180051191803
  endloop
endfacet
facet normal -2.1981796688744125e-15 -1.3059365876233782e-07 0.9999999999999916
  outer loop
    vertex 18.609542629718355 24.2044591433734 46.15180051191803
    vertex 18.609542629718348 27.704459143373366 46.151800968995836
    vertex 13.655618248289635 24.20445914182411 46.15180051191801
  endloop
endfacet
facet normal -2.1981796688744125e-15 -1.3059365876233782e-07 0.9999999999999916
  outer loop
    vertex 28.609542389683835 24.20445914182414 46.15180051191805
    vertex 28.609542389683828 27.66628491422257 46.15180096401055
    vertex 25.609542629718355 24.204459143373413 46.15180051191803
  endloop
endfacet
facet normal -2.1981796688744125e-15 -1.3059365876233782e-07 0.9999999999999916
  outer loop
    vertex 13.655618248289635 24.20445914182411 46.15180051191801
    vertex 40.56346903908446 43.704459141822895 46.15180305849443
    vertex 13.655611687034312 43.70445855505702 46.15180305849426
  endloop
endfacet
facet normal -2.1981796688744125e-15 -1.3059365876233782e-07 0.9999999999999916
  outer loop
    vertex 40.56346903908446 43.704459141822895 46.15180305849443
    vertex 13.655618248289635 24.20445914182411 46.15180051191801
    vertex 18.609542629718348 27.704459143373366 46.151800968995836
  endloop
endfacet
facet normal -2.1981796688744125e-15 -1.3059365876233782e-07 0.9999999999999916
  outer loop
    vertex 40.56346903908446 43.704459141822895 46.15180305849443
    vertex 18.609542629718348 27.704459143373366 46.151800968995836
    vertex 25.609542629718348 27.704459143373384 46.151800968995836
  endloop
endfacet
facet normal -2.1981796688744125e-15 -1.3059365876233782e-07 0.9999999999999916
  outer loop
    vertex 40.56346903908446 43.704459141822895 46.15180305849443
    vertex 25.609542629718348 27.704459143373384 46.151800968995836
    vertex 25.609542629718355 24.204459143373413 46.15180051191803
  endloop
endfacet
facet normal -2.1981796688744125e-15 -1.3059365876233782e-07 0.9999999999999916
  outer loop
    vertex 40.56346903908446 43.704459141822895 46.15180305849443
    vertex 25.609542629718355 24.204459143373413 46.15180051191803
    vertex 28.609542389683828 27.66628491422257 46.15180096401055
  endloop
endfacet
facet normal -2.1981796688744125e-15 -1.3059365876233782e-07 0.9999999999999916
  outer loop
    vertex 40.56346903908446 43.704459141822895 46.15180305849443
    vertex 28.609542389683828 27.66628491422257 46.15180096401055
    vertex 35.609543554500405 27.666284914222583 46.15180096401055
  endloop
endfacet
facet normal -2.1981796688744125e-15 -1.3059365876233782e-07 0.9999999999999916
  outer loop
    vertex 40.56346903908446 43.704459141822895 46.15180305849443
    vertex 35.609543554500405 27.666284914222583 46.15180096401055
    vertex 35.60954355450041 24.204459141824156 46.15180051191805
  endloop
endfacet
facet normal -2.1981796688744125e-15 -1.3059365876233782e-07 0.9999999999999916
  outer loop
    vertex 40.56346903908446 43.704459141822895 46.15180305849443
    vertex 35.60954355450041 24.204459141824156 46.15180051191805
    vertex 40.563475600340006 24.204459141824163 46.15180051191806
  endloop
endfacet
facet normal -2.1981796688744125e-15 -1.3059365876233782e-07 0.9999999999999916
  outer loop
    vertex 40.56346903908446 43.704459141822895 46.15180305849443
    vertex 40.563475600340006 24.204459141824163 46.15180051191806
    vertex 40.56347549939761 24.504459141824142 46.15180055109615
  endloop
endfacet
facet normal -0.9957038592761438 -3.229367870957666e-07 -0.09259494922774764
  outer loop
    vertex 24.200520716851102 24.204459446106817 48.892319665994165
    vertex 24.179601590856517 18.20445811860037 48.34450822369225
    vertex 24.20052273569942 18.20445805409921 48.892318882432
  endloop
endfacet
facet normal -0.9857414093509524 -3.536516272669522e-07 0.1682672692197537
  outer loop
    vertex 24.179601590856517 18.20445811860037 48.34450822369225
    vertex 24.200520716851102 24.204459446106817 48.892319665994165
    vertex 24.1795995720082 24.20445951060798 48.34450900725441
  endloop
endfacet
facet normal -0.9857414093509526 -3.536516272669522e-07 0.1682672692197532
  outer loop
    vertex 24.1795995720082 24.20445951060798 48.34450900725441
    vertex 24.01760948514523 18.20445813248991 47.820778551229786
    vertex 24.179601590856517 18.20445811860037 48.34450822369225
  endloop
endfacet
facet normal -0.9086023113931951 -3.602656934768418e-07 0.4176623513447361
  outer loop
    vertex 24.01760948514523 18.20445813248991 47.820778551229786
    vertex 24.1795995720082 24.20445951060798 48.34450900725441
    vertex 24.01760746629691 24.20445952449752 47.82077933479195
  endloop
endfacet
facet normal -0.9086023113931951 -3.602656934768418e-07 0.4176623513447361
  outer loop
    vertex 24.01760948514523 18.20445813248991 47.820778551229786
    vertex 23.725583894016847 24.20445948682888 47.35682196028088
    vertex 23.725585912865164 18.204458094821273 47.356821176718725
  endloop
endfacet
facet normal -0.7695434674503073 -3.423282480434933e-07 0.6385944344452437
  outer loop
    vertex 23.725583894016847 24.20445948682888 47.35682196028088
    vertex 24.01760948514523 18.20445813248991 47.820778551229786
    vertex 24.01760746629691 24.20445952449752 47.82077933479195
  endloop
endfacet
facet normal -0.5780415079313884 -3.010616982301586e-07 0.8160073621655113
  outer loop
    vertex 23.323431797875436 18.204458008161517 46.984254028506165
    vertex 23.725583894016847 24.20445948682888 47.35682196028088
    vertex 23.32342977902712 24.204459400169124 46.98425481206832
  endloop
endfacet
facet normal -0.7695434674503073 -3.423282480434933e-07 0.6385944344452437
  outer loop
    vertex 23.725583894016847 24.20445948682888 47.35682196028088
    vertex 23.323431797875436 18.204458008161517 46.984254028506165
    vertex 23.725585912865164 18.204458094821273 47.356821176718725
  endloop
endfacet
facet normal -0.34714697490570107 -2.392782912104181e-07 0.9378107366701255
  outer loop
    vertex 22.838553278521506 18.20445787841636 46.72846694204648
    vertex 23.32342977902712 24.204459400169124 46.98425481206832
    vertex 22.838551259673185 24.204459270423968 46.72846772560864
  endloop
endfacet
facet normal -0.5780415079313895 -3.0106169823015885e-07 0.8160073621655106
  outer loop
    vertex 23.32342977902712 24.204459400169124 46.98425481206832
    vertex 22.838553278521506 18.20445787841636 46.72846694204648
    vertex 23.323431797875436 18.204458008161517 46.984254028506165
  endloop
endfacet
facet normal -0.09259494922769596 -1.6118846407076144e-07 0.9957038592761879
  outer loop
    vertex 22.303994024597692 18.204457714427726 46.60689138457375
    vertex 22.838551259673185 24.204459270423968 46.72846772560864
    vertex 22.303992005749375 24.204459106435333 46.60689216813591
  endloop
endfacet
facet normal -0.3471469749057009 -2.39278291210418e-07 0.9378107366701254
  outer loop
    vertex 22.838551259673185 24.204459270423968 46.72846772560864
    vertex 22.303994024597692 18.204457714427726 46.60689138457375
    vertex 22.838553278521506 18.20445787841636 46.72846694204648
  endloop
endfacet
facet normal 0.16826726921978852 -7.211390948121396e-08 0.9857414093510071
  outer loop
    vertex 21.756183365857975 18.20445752737116 46.62781252941663
    vertex 22.303992005749375 24.204459106435333 46.60689216813591
    vertex 21.756181347009658 24.20445891937877 46.62781331297879
  endloop
endfacet
facet normal -0.09259494922769551 -1.611884640707613e-07 0.995703859276188
  outer loop
    vertex 22.303992005749375 24.204459106435333 46.60689216813591
    vertex 21.756183365857975 18.20445752737116 46.62781252941663
    vertex 22.303994024597692 18.204457714427726 46.60689138457375
  endloop
endfacet
facet normal 0.417662351344755 2.1875088865608112e-08 0.9086023113932575
  outer loop
    vertex 21.232453693395545 18.204457329994263 46.7898046351279
    vertex 21.756181347009658 24.20445891937877 46.62781331297879
    vertex 21.232451674547228 24.20445872200187 46.789805418690065
  endloop
endfacet
facet normal 0.16826726921978788 -7.21139094812142e-08 0.9857414093510072
  outer loop
    vertex 21.756181347009658 24.20445891937877 46.62781331297879
    vertex 21.232453693395545 18.204457329994263 46.7898046351279
    vertex 21.756183365857975 18.20445752737116 46.62781252941663
  endloop
endfacet
facet normal 0.6385944344452458 1.1437333605653212e-07 0.7695434674503733
  outer loop
    vertex 20.768496318884516 18.204457135747944 47.08182820740796
    vertex 21.232451674547228 24.20445872200187 46.789805418690065
    vertex 20.768494300036195 24.204458527755552 47.081828990970116
  endloop
endfacet
facet normal 0.4176623513447547 2.1875088865607997e-08 0.9086023113932576
  outer loop
    vertex 21.232451674547228 24.20445872200187 46.789805418690065
    vertex 20.768496318884516 18.204457135747944 47.08182820740796
    vertex 21.232453693395545 18.204457329994263 46.7898046351279
  endloop
endfacet
facet normal 0.6385944344452458 1.1437333605653212e-07 0.7695434674503733
  outer loop
    vertex 20.768496318884516 18.204457135747944 47.08182820740796
    vertex 20.395927151823674 24.204458349877378 47.483983105959844
    vertex 20.39592917067199 18.20445695786977 47.48398232239769
  endloop
endfacet
facet normal 0.8160073621654984 1.9907722940608023e-07 0.5780415079314509
  outer loop
    vertex 20.395927151823674 24.204458349877378 47.483983105959844
    vertex 20.768496318884516 18.204457135747944 47.08182820740796
    vertex 20.768494300036195 24.204458527755552 47.081828990970116
  endloop
endfacet
facet normal 0.8160073621654977 1.9907722940607992e-07 0.5780415079314517
  outer loop
    vertex 20.39592917067199 18.20445695786977 47.48398232239769
    vertex 20.140140065364022 24.20445820048945 47.96886162531379
    vertex 20.140142084212343 18.204456808481844 47.968860841751635
  endloop
endfacet
facet normal 0.9378107366700953 2.702143385622796e-07 0.34714697490575985
  outer loop
    vertex 20.140140065364022 24.20445820048945 47.96886162531379
    vertex 20.39592917067199 18.20445695786977 47.48398232239769
    vertex 20.395927151823674 24.204458349877378 47.483983105959844
  endloop
endfacet
facet normal 0.937810736670095 2.7021433856227937e-07 0.34714697490576063
  outer loop
    vertex 20.140142084212343 18.204456808481844 47.968860841751635
    vertex 20.01856450789132 24.20445808977231 48.50342087923763
    vertex 20.018566526739637 18.2044566977647 48.50342009567547
  endloop
endfacet
facet normal 0.9957038592761439 3.22936787095767e-07 0.09259494922774443
  outer loop
    vertex 20.01856450789132 24.20445808977231 48.50342087923763
    vertex 20.140142084212343 18.204456808481844 47.968860841751635
    vertex 20.140140065364022 24.20445820048945 47.96886162531379
  endloop
endfacet
facet normal 0.995703859276144 3.2293678709576713e-07 0.09259494922774385
  outer loop
    vertex 20.018566526739637 18.2044566977647 48.50342009567547
    vertex 20.03948565273422 24.204458025271137 49.05123153797737
    vertex 20.039487671582542 18.20445663326353 49.051230754415215
  endloop
endfacet
facet normal 0.9857414093509531 3.5365162726695193e-07 -0.16826726921974963
  outer loop
    vertex 20.03948565273422 24.204458025271137 49.05123153797737
    vertex 20.018566526739637 18.2044566977647 48.50342009567547
    vertex 20.01856450789132 24.20445808977231 48.50342087923763
  endloop
endfacet
facet normal 0.9857414093509532 3.536516272669519e-07 -0.1682672692197491
  outer loop
    vertex 20.039487671582542 18.20445663326353 49.051230754415215
    vertex 20.201477758445513 24.204458011381607 49.57496121043985
    vertex 20.20147977729383 18.204456619374 49.574960426877695
  endloop
endfacet
facet normal 0.9086023113931924 3.6026569347684157e-07 -0.41766235134474183
  outer loop
    vertex 20.201477758445513 24.204458011381607 49.57496121043985
    vertex 20.039487671582542 18.20445663326353 49.051230754415215
    vertex 20.03948565273422 24.204458025271137 49.05123153797737
  endloop
endfacet
facet normal 0.9086023113931924 3.6026569347684157e-07 -0.41766235134474183
  outer loop
    vertex 20.201477758445513 24.204458011381607 49.57496121043985
    vertex 20.493503349573896 18.204456657042627 50.038917801388735
    vertex 20.20147977729383 18.204456619374 49.574960426877695
  endloop
endfacet
facet normal 0.7695434674502998 3.423282480434919e-07 -0.6385944344452527
  outer loop
    vertex 20.493503349573896 18.204456657042627 50.038917801388735
    vertex 20.201477758445513 24.204458011381607 49.57496121043985
    vertex 20.493501330725575 24.204458049050235 50.03891858495089
  endloop
endfacet
facet normal 0.578041507931381 3.010616982301568e-07 -0.8160073621655165
  outer loop
    vertex 20.895655445715303 24.20445813570999 50.41148573316345
    vertex 20.493503349573896 18.204456657042627 50.038917801388735
    vertex 20.493501330725575 24.204458049050235 50.03891858495089
  endloop
endfacet
facet normal 0.7695434674502998 3.423282480434919e-07 -0.6385944344452527
  outer loop
    vertex 20.493503349573896 18.204456657042627 50.038917801388735
    vertex 20.895655445715303 24.20445813570999 50.41148573316345
    vertex 20.89565746456362 18.204456743702387 50.411484949601295
  endloop
endfacet
facet normal 0.34714697490569707 2.3927829121041686e-07 -0.9378107366701267
  outer loop
    vertex 21.380533965069237 24.204458265455152 50.66727281962313
    vertex 20.89565746456362 18.204456743702387 50.411484949601295
    vertex 20.895655445715303 24.20445813570999 50.41148573316345
  endloop
endfacet
facet normal 0.5780415079313821 3.0106169823015705e-07 -0.8160073621655157
  outer loop
    vertex 20.89565746456362 18.204456743702387 50.411484949601295
    vertex 21.380533965069237 24.204458265455152 50.66727281962313
    vertex 21.380535983917554 18.204456873447544 50.667272036060965
  endloop
endfacet
facet normal 0.09259494922770604 1.6118846407076472e-07 -0.995703859276187
  outer loop
    vertex 21.915093218993047 24.204458429443783 50.78884837709586
    vertex 21.380535983917554 18.204456873447544 50.667272036060965
    vertex 21.380533965069237 24.204458265455152 50.66727281962313
  endloop
endfacet
facet normal 0.347146974905697 2.3927829121041686e-07 -0.9378107366701269
  outer loop
    vertex 21.380535983917554 18.204456873447544 50.667272036060965
    vertex 21.915093218993047 24.204458429443783 50.78884837709586
    vertex 21.915095237841363 18.204457037436175 50.7888475935337
  endloop
endfacet
facet normal -0.16826726921978347 7.211390948121578e-08 -0.9857414093510081
  outer loop
    vertex 22.462903877732764 24.204458616500347 50.76792723225299
    vertex 21.915095237841363 18.204457037436175 50.7888475935337
    vertex 21.915093218993047 24.204458429443783 50.78884837709586
  endloop
endfacet
facet normal 0.0925949492277056 1.6118846407076456e-07 -0.9957038592761871
  outer loop
    vertex 21.915095237841363 18.204457037436175 50.7888475935337
    vertex 22.462903877732764 24.204458616500347 50.76792723225299
    vertex 22.462905896581084 18.20445722449274 50.76792644869083
  endloop
endfacet
facet normal -0.41766235134476304 -2.187508886561124e-08 -0.9086023113932538
  outer loop
    vertex 22.986633550195194 24.204458813877245 50.605935126541716
    vertex 22.462905896581084 18.20445722449274 50.76792644869083
    vertex 22.462903877732764 24.204458616500347 50.76792723225299
  endloop
endfacet
facet normal -0.1682672692197828 7.211390948121603e-08 -0.9857414093510082
  outer loop
    vertex 22.462905896581084 18.20445722449274 50.76792644869083
    vertex 22.986633550195194 24.204458813877245 50.605935126541716
    vertex 22.98663556904351 18.204457421869638 50.60593434297955
  endloop
endfacet
facet normal -0.6385944344452458 -1.1437333605653215e-07 -0.769543467450373
  outer loop
    vertex 23.450590924706226 24.204459008123564 50.313911554261644
    vertex 22.98663556904351 18.204457421869638 50.60593434297955
    vertex 22.986633550195194 24.204458813877245 50.605935126541716
  endloop
endfacet
facet normal -0.4176623513447627 -2.1875088865611133e-08 -0.908602311393254
  outer loop
    vertex 22.98663556904351 18.204457421869638 50.60593434297955
    vertex 23.450590924706226 24.204459008123564 50.313911554261644
    vertex 23.450592943554543 18.204457616115956 50.313910770699486
  endloop
endfacet
facet normal -0.6385944344452458 -1.1437333605653215e-07 -0.769543467450373
  outer loop
    vertex 23.450590924706226 24.204459008123564 50.313911554261644
    vertex 23.82316009176706 18.20445779399413 49.91175665570977
    vertex 23.450592943554543 18.204457616115956 50.313910770699486
  endloop
endfacet
facet normal -0.8160073621654934 -1.9907722940607767e-07 -0.5780415079314578
  outer loop
    vertex 23.82316009176706 18.20445779399413 49.91175665570977
    vertex 23.450590924706226 24.204459008123564 50.313911554261644
    vertex 23.823158072918744 24.20445918600174 49.91175743927194
  endloop
endfacet
facet normal -0.816007362165493 -1.9907722940607738e-07 -0.5780415079314586
  outer loop
    vertex 23.823158072918744 24.20445918600174 49.91175743927194
    vertex 24.078947178226716 18.204457943382057 49.426878136355825
    vertex 23.82316009176706 18.20445779399413 49.91175665570977
  endloop
endfacet
facet normal -0.9378107366700938 -2.7021433856227857e-07 -0.3471469749057638
  outer loop
    vertex 24.078947178226716 18.204457943382057 49.426878136355825
    vertex 23.823158072918744 24.20445918600174 49.91175743927194
    vertex 24.0789451593784 24.204459335389664 49.42687891991798
  endloop
endfacet
facet normal -0.9378107366700943 -2.702143385622788e-07 -0.3471469749057629
  outer loop
    vertex 24.0789451593784 24.204459335389664 49.42687891991798
    vertex 24.20052273569942 18.20445805409921 48.892318882432
    vertex 24.078947178226716 18.204457943382057 49.426878136355825
  endloop
endfacet
facet normal -0.9957038592761437 -3.2293678709576644e-07 -0.09259494922774825
  outer loop
    vertex 24.20052273569942 18.20445805409921 48.892318882432
    vertex 24.0789451593784 24.204459335389664 49.42687891991798
    vertex 24.200520716851102 24.204459446106817 48.892319665994165
  endloop
endfacet
facet normal -0.4176623178643583 -5.744331320139849e-07 -0.9086023267831983
  outer loop
    vertex 32.9866344923244 24.204458855261187 50.605935597606056
    vertex 32.46291064087325 18.20445942928449 50.76792882083735
    vertex 32.46290481986197 24.204458657884295 50.76792770331733
  endloop
endfacet
facet normal -0.16826731601878714 -3.468453268460674e-07 -0.9857414013623012
  outer loop
    vertex 32.46291064087325 18.20445942928449 50.76792882083735
    vertex 32.9866344923244 24.204458855261187 50.605935597606056
    vertex 32.98664031333568 18.204459626661386 50.60593671512607
  endloop
endfacet
facet normal -0.6385944162000261 -7.628743549050908e-07 -0.769543482590533
  outer loop
    vertex 33.450591866835424 24.204459049507506 50.31391202532601
    vertex 32.98664031333568 18.204459626661386 50.60593671512607
    vertex 32.9866344923244 24.204458855261187 50.605935597606056
  endloop
endfacet
facet normal -0.41766238482463874 -5.744331912438706e-07 -0.9086022960031883
  outer loop
    vertex 32.98664031333568 18.204459626661386 50.60593671512607
    vertex 33.450591866835424 24.204459049507506 50.31391202532601
    vertex 33.45059768784671 18.204459820907704 50.31391314284601
  endloop
endfacet
facet normal -0.6385944162000261 -7.628743549050908e-07 -0.769543482590533
  outer loop
    vertex 33.450591866835424 24.204459049507506 50.31391202532601
    vertex 33.82316483605923 18.204459998785882 49.911759027856284
    vertex 33.45059768784671 18.204459820907704 50.31391314284601
  endloop
endfacet
facet normal -0.8160073673406771 -8.993269547258319e-07 -0.5780415006251096
  outer loop
    vertex 33.82316483605923 18.204459998785882 49.911759027856284
    vertex 33.450591866835424 24.204459049507506 50.31391202532601
    vertex 33.82315901504795 24.204459227385687 49.91175791033628
  endloop
endfacet
facet normal -0.8160073569894472 -8.993269474050357e-07 -0.5780415152376931
  outer loop
    vertex 33.82315901504795 24.204459227385687 49.91175791033628
    vertex 34.07895192251888 18.204460148173812 49.426880508502336
    vertex 33.82316483605923 18.204459998785882 49.911759027856284
  endloop
endfacet
facet normal -0.9378107344439087 -9.74491885844078e-07 -0.3471469809184965
  outer loop
    vertex 34.07895192251888 18.204460148173812 49.426880508502336
    vertex 33.82315901504795 24.204459227385687 49.91175791033628
    vertex 34.078946101507604 24.204459376773613 49.42687939098232
  endloop
endfacet
facet normal -0.9378107388953406 -9.74491887922936e-07 -0.3471469688930404
  outer loop
    vertex 34.078946101507604 24.204459376773613 49.42687939098232
    vertex 34.200527479991585 18.204460258890954 48.89232125457851
    vertex 34.07895192251888 18.204460148173812 49.426880508502336
  endloop
endfacet
facet normal -0.9957038572997582 -9.832468128109683e-07 -0.09259497047580857
  outer loop
    vertex 34.200527479991585 18.204460258890954 48.89232125457851
    vertex 34.078946101507604 24.204459376773613 49.42687939098232
    vertex 34.20052165898031 24.20445948749076 48.892320137058505
  endloop
endfacet
facet normal -0.9957038612516516 -9.83246808729948e-07 -0.0925949279798035
  outer loop
    vertex 34.20052165898031 24.20445948749076 48.892320137058505
    vertex 34.17960633514868 18.20446032339212 48.34451059583876
    vertex 34.200527479991585 18.204460258890954 48.89232125457851
  endloop
endfacet
facet normal -0.9857414152085954 -9.2499510151157e-07 0.16826723490240159
  outer loop
    vertex 34.17960633514868 18.20446032339212 48.34451059583876
    vertex 34.20052165898031 24.20445948749076 48.892320137058505
    vertex 34.1796005141374 24.20445955199192 48.34450947831875
  endloop
endfacet
facet normal -0.985741403492601 -9.249950773616718e-07 0.1682673035369075
  outer loop
    vertex 34.1796005141374 24.20445955199192 48.34450947831875
    vertex 34.01761422943739 18.204460337281656 47.8207809233763
    vertex 34.17960633514868 18.20446032339212 48.34451059583876
  endloop
endfacet
facet normal -0.9086023305699718 -8.037065076982791e-07 0.41766230962605416
  outer loop
    vertex 34.01761422943739 18.204460337281656 47.8207809233763
    vertex 34.1796005141374 24.20445955199192 48.34450947831875
    vertex 34.01760840842611 24.20445956588146 47.82077980585629
  endloop
endfacet
facet normal -0.9086023305699718 -8.037065076982791e-07 0.41766230962605416
  outer loop
    vertex 34.01761422943739 18.204460337281656 47.8207809233763
    vertex 33.72558483614605 24.204459528212823 47.356822431345215
    vertex 33.725590657157326 18.20446029961302 47.356823548865236
  endloop
endfacet
facet normal -0.7695434330378852 -6.276465635937845e-07 0.6385944759139968
  outer loop
    vertex 33.72558483614605 24.204459528212823 47.356822431345215
    vertex 34.01761422943739 18.204460337281656 47.8207809233763
    vertex 34.01760840842611 24.20445956588146 47.82077980585629
  endloop
endfacet
facet normal -0.5780415554128941 -4.088137013299811e-07 0.8160073285306175
  outer loop
    vertex 33.323436542167606 18.204460212953265 46.984256400652676
    vertex 33.72558483614605 24.204459528212823 47.356822431345215
    vertex 33.32343072115632 24.20445944155307 46.98425528313266
  endloop
endfacet
facet normal -0.7695434330378852 -6.276465635937845e-07 0.6385944759139968
  outer loop
    vertex 33.72558483614605 24.204459528212823 47.356822431345215
    vertex 33.323436542167606 18.204460212953265 46.984256400652676
    vertex 33.725590657157326 18.20446029961302 47.356823548865236
  endloop
endfacet
facet normal -0.3471470297886012 -1.6212077547786476e-07 0.9378107163542788
  outer loop
    vertex 32.83855802281367 18.20446008320811 46.72846931419299
    vertex 33.32343072115632 24.20445944155307 46.98425528313266
    vertex 32.83855220180239 24.204459311807913 46.72846819667297
  endloop
endfacet
facet normal -0.5780414604498105 -4.0881359667055685e-07 0.8160073958003586
  outer loop
    vertex 33.32343072115632 24.20445944155307 46.98425528313266
    vertex 32.83855802281367 18.20446008320811 46.72846931419299
    vertex 33.323436542167606 18.204460212953265 46.984256400652676
  endloop
endfacet
facet normal -0.0925950038608787 9.562041657517104e-08 0.9957038541956111
  outer loop
    vertex 32.30399876888986 18.204459919219474 46.60689375672026
    vertex 32.83855220180239 24.204459311807913 46.72846819667297
    vertex 32.30399294787858 24.204459147819275 46.60689263920025
  endloop
endfacet
facet normal -0.34714692002285563 -1.6212066141878605e-07 0.9378107569859809
  outer loop
    vertex 32.83855220180239 24.204459311807913 46.72846819667297
    vertex 32.30399876888986 18.204459919219474 46.60689375672026
    vertex 32.83855802281367 18.20446008320811 46.72846931419299
  endloop
endfacet
facet normal 0.16826722242047265 3.468452380885557e-07 0.9857414173396485
  outer loop
    vertex 31.75618811015014 18.204459732162913 46.62781490156314
    vertex 32.30399294787858 24.204459147819275 46.60689263920025
    vertex 31.75618228913886 24.204458960762715 46.62781378404313
  endloop
endfacet
facet normal -0.0925948945946711 9.562052447437092e-08 0.9957038643567638
  outer loop
    vertex 32.30399294787858 24.204459147819275 46.60689263920025
    vertex 31.75618811015014 18.204459732162913 46.62781490156314
    vertex 32.30399876888986 18.204459919219474 46.60689375672026
  endloop
endfacet
facet normal 0.4176623178643585 5.744331319618781e-07 0.9086023267831981
  outer loop
    vertex 31.23245843768771 18.204459534786015 46.78980700727441
    vertex 31.75618228913886 24.204458960762715 46.62781378404313
    vertex 31.23245261667643 24.204458763385816 46.789805889754405
  endloop
endfacet
facet normal 0.16826731601879222 3.4684532591887806e-07 0.9857414013623003
  outer loop
    vertex 31.75618228913886 24.204458960762715 46.62781378404313
    vertex 31.23245843768771 18.204459534786015 46.78980700727441
    vertex 31.75618811015014 18.204459732162913 46.62781490156314
  endloop
endfacet
facet normal 0.6385944162000261 7.628743559505057e-07 0.769543482590533
  outer loop
    vertex 30.768501063176682 18.204459340539696 47.08183057955447
    vertex 31.23245261667643 24.204458763385816 46.789805889754405
    vertex 30.7684952421654 24.204458569139497 47.08182946203445
  endloop
endfacet
facet normal 0.41766238482463847 5.74433191191764e-07 0.9086022960031883
  outer loop
    vertex 31.23245261667643 24.204458763385816 46.789805889754405
    vertex 30.768501063176682 18.204459340539696 47.08183057955447
    vertex 31.23245843768771 18.204459534786015 46.78980700727441
  endloop
endfacet
facet normal 0.6385944162000261 7.628743559505057e-07 0.769543482590533
  outer loop
    vertex 30.768501063176682 18.204459340539696 47.08183057955447
    vertex 30.39592809395288 24.204458391261326 47.48398357702418
    vertex 30.39593391496416 18.20445916266152 47.4839846945442
  endloop
endfacet
facet normal 0.8160073673406798 8.993269553703483e-07 0.578041500625106
  outer loop
    vertex 30.39592809395288 24.204458391261326 47.48398357702418
    vertex 30.768501063176682 18.204459340539696 47.08183057955447
    vertex 30.7684952421654 24.204458569139497 47.08182946203445
  endloop
endfacet
facet normal 0.8160073569894497 8.993269480495517e-07 0.5780415152376893
  outer loop
    vertex 30.39593391496416 18.20445916266152 47.4839846945442
    vertex 30.140141007493227 24.204458241873393 47.96886209637813
    vertex 30.14014682850451 18.204459013273592 47.968863213898146
  endloop
endfacet
facet normal 0.9378107344439085 9.744918859497288e-07 0.34714698091849683
  outer loop
    vertex 30.140141007493227 24.204458241873393 47.96886209637813
    vertex 30.39593391496416 18.20445916266152 47.4839846945442
    vertex 30.39592809395288 24.204458391261326 47.48398357702418
  endloop
endfacet
facet normal 0.9378107388953406 9.744918880285869e-07 0.347146968893041
  outer loop
    vertex 30.14014682850451 18.204459013273592 47.968863213898146
    vertex 30.01856545002052 24.20445813115625 48.503421350301956
    vertex 30.018571271031803 18.204458902556446 48.50342246782198
  endloop
endfacet
facet normal 0.9957038572997574 9.832468128799043e-07 0.09259497047581874
  outer loop
    vertex 30.01856545002052 24.20445813115625 48.503421350301956
    vertex 30.14014682850451 18.204459013273592 47.968863213898146
    vertex 30.140141007493227 24.204458241873393 47.96886209637813
  endloop
endfacet
facet normal 0.9957038612516507 9.832468087988835e-07 0.09259492797981318
  outer loop
    vertex 30.018571271031803 18.204458902556446 48.50342246782198
    vertex 30.039486594863423 24.204458066655086 49.0512320090417
    vertex 30.039492415874705 18.204458838055285 49.05123312656172
  endloop
endfacet
facet normal 0.9857414152085957 9.24995101404498e-07 -0.16826723490240073
  outer loop
    vertex 30.039486594863423 24.204458066655086 49.0512320090417
    vertex 30.018571271031803 18.204458902556446 48.50342246782198
    vertex 30.01856545002052 24.20445813115625 48.503421350301956
  endloop
endfacet
facet normal 0.9857414034926012 9.249950772546e-07 -0.16826730353690675
  outer loop
    vertex 30.039492415874705 18.204458838055285 49.05123312656172
    vertex 30.201478700574715 24.20445805276555 49.57496168150417
    vertex 30.201484521585996 18.204458824165744 49.57496279902418
  endloop
endfacet
facet normal 0.9086023305699713 8.03706507501684e-07 -0.41766230962605516
  outer loop
    vertex 30.201478700574715 24.20445805276555 49.57496168150417
    vertex 30.039492415874705 18.204458838055285 49.05123312656172
    vertex 30.039486594863423 24.204458066655086 49.0512320090417
  endloop
endfacet
facet normal 0.9086023305699713 8.03706507501684e-07 -0.41766230962605516
  outer loop
    vertex 30.201478700574715 24.20445805276555 49.57496168150417
    vertex 30.49350809386606 18.20445886183438 50.03892017353525
    vertex 30.201484521585996 18.204458824165744 49.57496279902418
  endloop
endfacet
facet normal 0.7695434330378859 6.27646563294915e-07 -0.6385944759139957
  outer loop
    vertex 30.49350809386606 18.20445886183438 50.03892017353525
    vertex 30.201478700574715 24.20445805276555 49.57496168150417
    vertex 30.493502272854776 24.204458090434184 50.03891905601523
  endloop
endfacet
facet normal 0.5780415554128928 4.0881370178569585e-07 -0.8160073285306182
  outer loop
    vertex 30.895656387844504 24.20445817709394 50.41148620422779
    vertex 30.49350809386606 18.20445886183438 50.03892017353525
    vertex 30.493502272854776 24.204458090434184 50.03891905601523
  endloop
endfacet
facet normal 0.7695434330378859 6.27646563294915e-07 -0.6385944759139957
  outer loop
    vertex 30.49350809386606 18.20445886183438 50.03892017353525
    vertex 30.895656387844504 24.20445817709394 50.41148620422779
    vertex 30.895662208855786 18.204458948494135 50.411487321747806
  endloop
endfacet
facet normal 0.34714702978859757 1.6212077656914357e-07 -0.9378107163542804
  outer loop
    vertex 31.38053490719844 24.204458306839093 50.66727329068749
    vertex 30.895662208855786 18.204458948494135 50.411487321747806
    vertex 30.895656387844504 24.20445817709394 50.41148620422779
  endloop
endfacet
facet normal 0.5780414604498092 4.0881359712627243e-07 -0.8160073958003595
  outer loop
    vertex 30.895662208855786 18.204458948494135 50.411487321747806
    vertex 31.38053490719844 24.204458306839093 50.66727329068749
    vertex 31.380540728209724 18.204459078239292 50.6672744082075
  endloop
endfacet
facet normal 0.09259500386087975 -9.56204165864229e-08 -0.9957038541956109
  outer loop
    vertex 31.915094161122248 24.204458470827728 50.7888488481602
    vertex 31.380540728209724 18.204459078239292 50.6672744082075
    vertex 31.38053490719844 24.204458306839093 50.66727329068749
  endloop
endfacet
facet normal 0.34714692002285186 1.621206625100644e-07 -0.9378107569859824
  outer loop
    vertex 31.380540728209724 18.204459078239292 50.6672744082075
    vertex 31.915094161122248 24.204458470827728 50.7888488481602
    vertex 31.91509998213353 18.204459242227927 50.78884996568022
  endloop
endfacet
facet normal -0.16826722242046754 -3.46845239015745e-07 -0.9857414173396494
  outer loop
    vertex 32.46290481986197 24.204458657884295 50.76792770331733
    vertex 31.91509998213353 18.204459242227927 50.78884996568022
    vertex 31.915094161122248 24.204458470827728 50.7888488481602
  endloop
endfacet
facet normal 0.09259489459467259 -9.562052448562318e-08 -0.9957038643567637
  outer loop
    vertex 31.91509998213353 18.204459242227927 50.78884996568022
    vertex 32.46290481986197 24.204458657884295 50.76792770331733
    vertex 32.46291064087325 18.20445942928449 50.76792882083735
  endloop
endfacet
facet normal 2.9307915931259376e-22 -1.3059365991798156e-07 0.9999999999999916
  outer loop
    vertex 28.609542389683835 24.204459272417804 45.15180051191805
    vertex 35.609543554500405 27.66628504481625 45.15180096401055
    vertex 28.609542389683828 27.66628504481623 45.15180096401055
  endloop
endfacet
facet normal 2.9307915931259376e-22 -1.3059365991798156e-07 0.9999999999999916
  outer loop
    vertex 35.609543554500405 27.66628504481625 45.15180096401055
    vertex 28.609542389683835 24.204459272417804 45.15180051191805
    vertex 35.60954355450041 24.204459272417818 45.15180051191805
  endloop
endfacet
facet normal -1.0 -1.6291787443677041e-15 8.031874442503423e-23
  outer loop
    vertex 35.609543554500405 27.666284914222583 46.15180096401055
    vertex 35.60954355450041 24.204459272417818 45.15180051191805
    vertex 35.60954355450041 24.204459141824156 46.15180051191805
  endloop
endfacet
facet normal -1.0 -1.6291787443677041e-15 8.031874442503423e-23
  outer loop
    vertex 35.60954355450041 24.204459272417818 45.15180051191805
    vertex 35.609543554500405 27.666284914222583 46.15180096401055
    vertex 35.609543554500405 27.66628504481625 45.15180096401055
  endloop
endfacet
facet normal 2.417113725684729e-15 -0.9999999999999915 -1.3059365991798156e-07
  outer loop
    vertex 35.609543554500405 27.666284914222583 46.15180096401055
    vertex 28.609542389683828 27.66628504481623 45.15180096401055
    vertex 35.609543554500405 27.66628504481625 45.15180096401055
  endloop
endfacet
facet normal 2.417113725684729e-15 -0.9999999999999915 -1.3059365991798156e-07
  outer loop
    vertex 28.609542389683828 27.66628504481623 45.15180096401055
    vertex 35.609543554500405 27.666284914222583 46.15180096401055
    vertex 28.609542389683828 27.66628491422257 46.15180096401055
  endloop
endfacet
facet normal 1.0 1.6291787443677055e-15 -8.031874442503405e-23
  outer loop
    vertex 28.609542389683835 24.204459272417804 45.15180051191805
    vertex 28.609542389683828 27.66628491422257 46.15180096401055
    vertex 28.609542389683835 24.20445914182414 46.15180051191805
  endloop
endfacet
facet normal 1.0 1.6291787443677055e-15 -8.031874442503405e-23
  outer loop
    vertex 28.609542389683828 27.66628491422257 46.15180096401055
    vertex 28.609542389683835 24.204459272417804 45.15180051191805
    vertex 28.609542389683828 27.66628504481623 45.15180096401055
  endloop
endfacet
facet normal 2.9177914208878387e-22 -1.305936581604986e-07 0.9999999999999916
  outer loop
    vertex 18.609542629718355 24.20445927396706 45.15180051191803
    vertex 25.609542629718348 27.704459273967046 45.151800968995836
    vertex 18.609542629718348 27.70445927396703 45.151800968995836
  endloop
endfacet
facet normal 2.9177914208878387e-22 -1.305936581604986e-07 0.9999999999999916
  outer loop
    vertex 25.609542629718348 27.704459273967046 45.151800968995836
    vertex 18.609542629718355 24.20445927396706 45.15180051191803
    vertex 25.609542629718355 24.204459273967075 45.15180051191803
  endloop
endfacet
facet normal -1.0 -1.6114094185988221e-15 8.133929131968212e-23
  outer loop
    vertex 25.609542629718348 27.704459143373384 46.151800968995836
    vertex 25.609542629718355 24.204459273967075 45.15180051191803
    vertex 25.609542629718355 24.204459143373413 46.15180051191803
  endloop
endfacet
facet normal -1.0 -1.6114094185988221e-15 8.133929131968212e-23
  outer loop
    vertex 25.609542629718355 24.204459273967075 45.15180051191803
    vertex 25.609542629718348 27.704459143373384 46.151800968995836
    vertex 25.609542629718348 27.704459273967046 45.151800968995836
  endloop
endfacet
facet normal 2.417114127898177e-15 -0.9999999999999916 -1.305936581604986e-07
  outer loop
    vertex 25.609542629718348 27.704459143373384 46.151800968995836
    vertex 18.609542629718348 27.70445927396703 45.151800968995836
    vertex 25.609542629718348 27.704459273967046 45.151800968995836
  endloop
endfacet
facet normal 2.417114127898177e-15 -0.9999999999999916 -1.305936581604986e-07
  outer loop
    vertex 18.609542629718348 27.70445927396703 45.151800968995836
    vertex 25.609542629718348 27.704459143373384 46.151800968995836
    vertex 18.609542629718348 27.704459143373366 46.151800968995836
  endloop
endfacet
facet normal 1.0 2.417114127898216e-15 2.3880634064867715e-23
  outer loop
    vertex 18.609542629718355 24.20445927396706 45.15180051191803
    vertex 18.609542629718348 27.704459143373366 46.151800968995836
    vertex 18.609542629718355 24.2044591433734 46.15180051191803
  endloop
endfacet
facet normal 1.0 2.417114127898216e-15 2.3880634064867715e-23
  outer loop
    vertex 18.609542629718348 27.704459143373366 46.151800968995836
    vertex 18.609542629718355 24.20445927396706 45.15180051191803
    vertex 18.609542629718348 27.70445927396703 45.151800968995836
  endloop
endfacet
endsolid gopro_motoduino_mount
